<?xml version="1.0" encoding="UTF-8" standalone="no"?>
<!DOCTYPE svg PUBLIC "-//W3C//DTD SVG 1.1//EN" "http://www.w3.org/Graphics/SVG/1.1/DTD/svg11.dtd">
<svg width="100%" height="100%" viewBox="0 0 64 64" version="1.1" xmlns="http://www.w3.org/2000/svg" xmlns:xlink="http://www.w3.org/1999/xlink" xml:space="preserve" xmlns:serif="http://www.serif.com/" style="fill-rule:evenodd;clip-rule:evenodd;stroke-linejoin:round;stroke-miterlimit:2;">
    <g transform="matrix(0.5,0,0,0.5,0,0)">
        <rect x="0" y="-0" width="128" height="128"/>
    </g>
    <g transform="matrix(0.469725,0,0,0.508423,1.93741,1.07253)">
        <path d="M63.686,23.851C70.234,2.778 103.549,-2.317 117.831,8.392C136.293,22.235 135.573,51.185 120.875,76.246C111.423,93.398 87.435,110.782 67.27,122.216C65.241,123.367 62.757,123.367 60.729,122.216C40.569,110.785 16.589,93.408 7.134,76.265C-7.574,51.188 -6.825,19.85 8.914,8.392C24.326,-2.828 56.198,3.356 63.686,23.851Z" style="fill:white;"/>
    </g>
    <g transform="matrix(0.458668,0,0,0.552444,9.617903,17.864665)">
        <path d="M-5.601,34.443C-11.189,13.57 1.181,11.499 0.264,7.953C-3.816,-7.835 9.54,-24.219 9.54,-24.219C9.54,-24.219 19.676,-8.789 27.732,-0.549C27.826,-0.453 38.688,-1.952 47.723,-1.996C56.704,-2.04 70.455,0.805 70.612,0.674C79.52,-6.769 90.071,-23.957 90.071,-23.957C90.071,-23.957 102.853,-8.291 98.017,8.462C96.89,12.365 107.61,12.295 102.109,34.33C99.001,46.783 85.053,56.722 71.06,62.447C65.048,64.906 62.499,72.101 48.342,71.958C33.879,71.812 31.067,63.793 24.844,61.231C8.485,54.495 -3.013,44.107 -5.601,34.443ZM48.792,55.87C46.072,55.841 37.656,60.471 37.656,60.471C37.656,60.471 45.315,61.488 48.535,61.43C51.755,61.372 58.722,60.677 58.722,60.677C58.722,60.677 51.512,55.9 48.792,55.87ZM2.347,14.986C2.347,14.986 11.29,35.573 22.145,37.967C32.465,40.243 40.848,35.986 40.848,35.986C40.848,35.986 37.71,12.411 30.866,10.893C10.574,6.394 2.347,14.986 2.347,14.986ZM18.16,23.772C17.855,16.985 23.441,12.164 23.441,12.164C23.441,12.164 29.237,18.316 29.601,23.96C29.903,28.645 24.437,34.956 24.437,34.956C24.437,34.956 18.449,30.2 18.16,23.772ZM91.397,13.311C91.397,13.311 84.103,6.246 66.292,10.28C58.969,11.939 56.513,35.496 56.513,35.496C56.513,35.496 65.107,37.952 76.215,36.886C86.08,35.939 91.397,13.311 91.397,13.311ZM71.826,12.068C71.826,12.068 76.851,18.648 77.161,23.313C77.502,28.457 71.669,34.624 71.669,34.624C71.669,34.624 66.661,29.48 66.399,23.845C66.114,17.752 71.826,12.068 71.826,12.068ZM37.942,43.901C36.304,45.245 45.964,52.062 49.256,52.062C52.549,52.062 61.771,45.856 60.666,44.167C59.341,42.141 39.581,42.557 37.942,43.901Z"/>
    </g>
</svg>
